<svg xmlns="http://www.w3.org/2000/svg" width="278" height="40" viewBox="0 0 278 40">
  <g id="github" transform="translate(2211 -1387)">
    <rect id="Rectangle_43" data-name="Rectangle 43" width="278" height="40" transform="translate(-2211 1387)" fill="#333"/>
    <path id="github-alt" d="M12.4,81.64c0,1.393-.726,3.672-2.446,3.672S7.51,83.033,7.51,81.64s.726-3.672,2.446-3.672S12.4,80.247,12.4,81.64Zm19.586-3.365a14.443,14.443,0,0,1-1.166,6.331c-2.526,5.1-9.47,4.985-14.441,4.985-5.051,0-12.409.18-15.034-4.985A14.264,14.264,0,0,1,0,78.275,11.46,11.46,0,0,1,2.766,70.7a10.432,10.432,0,0,1-.513-3.252A6.636,6.636,0,0,1,3.225,64a10.413,10.413,0,0,1,7.251,2.4,25.527,25.527,0,0,1,5.911-.666,22.988,22.988,0,0,1,5.358.613A10.3,10.3,0,0,1,28.929,64a6.574,6.574,0,0,1,.973,3.452,10.286,10.286,0,0,1-.513,3.212,11.482,11.482,0,0,1,2.6,7.61ZM27.7,81.64c0-2.926-1.779-5.5-4.9-5.5a27.4,27.4,0,0,0-3.732.4,19.579,19.579,0,0,1-3.006.213,19.7,19.7,0,0,1-3.006-.213,26.956,26.956,0,0,0-3.732-.4c-3.119,0-4.9,2.579-4.9,5.5,0,5.851,5.358,6.751,10.023,6.751h3.212C22.351,88.391,27.7,87.5,27.7,81.64Zm-5.5-3.672c-1.719,0-2.446,2.279-2.446,3.672s.726,3.672,2.446,3.672,2.446-2.279,2.446-3.672S23.918,77.968,22.2,77.968Z" transform="translate(-2195.988 1330.421)" fill="#fff"/>
    <text id="VIEW_ON_GITHUB" data-name="VIEW ON GITHUB" transform="translate(-2153 1417)" fill="#fff" font-size="26" font-family="PulpDisplay-Bold, Pulp Display" font-weight="700"><tspan x="0" y="0">VIEW ON GITHUB</tspan></text>
  </g>
</svg>
